HIERARCHY
ROOT hip
{
	OFFSET 0.000000 0.000000 0.000000 
	CHANNELS 6 Xposition Yposition Zposition Xrotation Zrotation Yrotation
	JOINT abdomen
	{
		OFFSET 0.000000 3.402643 0.000000 
		CHANNELS 3 Xrotation Zrotation Yrotation
		JOINT chest
		{
			OFFSET 0.000000 8.438565 -0.680529 
			CHANNELS 3 Xrotation Zrotation Yrotation
			JOINT neck
			{
				OFFSET 0.000000 10.207942 -0.272212 
				CHANNELS 3 Xrotation Zrotation Yrotation
				JOINT head
				{
					OFFSET 0.000000 3.130431 0.000000 
					CHANNELS 3 Xrotation Zrotation Yrotation
					End Site
					{
						OFFSET 0.000000 3.130435 0.000000 
					}
				}
			}
			JOINT lCollar
			{
				OFFSET 3.470700 6.669187 -0.816635 
				CHANNELS 3 Yrotation Zrotation Xrotation
				JOINT lShldr
				{
					OFFSET 3.198488 0.000000 0.000000 
					CHANNELS 3 Zrotation Yrotation Xrotation
					JOINT lForeArm
					{
						OFFSET 10.139888 0.000000 0.000000 
						CHANNELS 3 Yrotation Zrotation Xrotation
						JOINT lHand
						{
							OFFSET 8.370511 0.000000 0.000000 
							CHANNELS 3 Zrotation Yrotation Xrotation
							End Site
							{
								OFFSET 4.083176 0.000000 0.000000 
							}
						}
					}
				}
			}
			JOINT rCollar
			{
				OFFSET -3.470700 6.669187 -0.816635 
				CHANNELS 3 Yrotation Zrotation Xrotation
				JOINT rShldr
				{
					OFFSET -3.198488 0.000000 0.000000 
					CHANNELS 3 Zrotation Yrotation Xrotation
					JOINT rForeArm
					{
						OFFSET -10.139888 0.000000 0.000000 
						CHANNELS 3 Yrotation Zrotation Xrotation
						JOINT rHand
						{
							OFFSET -8.370511 0.000000 0.000000 
							CHANNELS 3 Zrotation Yrotation Xrotation
							End Site
							{
								OFFSET -4.083176 0.000000 0.000000 
							}
						}
					}
				}
			}
		}
	}
	JOINT lThigh
	{
		OFFSET 5.308129 -1.633274 1.361059 
		CHANNELS 3 Xrotation Zrotation Yrotation
		JOINT lShin
		{
			OFFSET -2.041588 -20.007561 0.000000 
			CHANNELS 3 Xrotation Zrotation Yrotation
			JOINT lFoot
			{
				OFFSET 0.000000 -19.190928 -1.224953 
				CHANNELS 3 Xrotation Yrotation Zrotation
				End Site
				{
					OFFSET 0.000000 -2.449906 4.627600 
				}
			}
		}
	}
	JOINT rThigh
	{
		OFFSET -5.308129 -1.633274 1.361059 
		CHANNELS 3 Xrotation Zrotation Yrotation
		JOINT rShin
		{
			OFFSET 2.041588 -20.007561 0.000000 
			CHANNELS 3 Xrotation Zrotation Yrotation
			JOINT rFoot
			{
				OFFSET 0.000000 -19.190928 -1.224953 
				CHANNELS 3 Xrotation Yrotation Zrotation
				End Site
				{
					OFFSET 0.000000 -2.449906 4.627600 
				}
			}
		}
	}
}
MOTION
Frames: 15
Frame Time: 0.011111
-36.254929 48.312237 -2.038203 -2.209066 -5.923360 7.239593 0.000000 0.000000 0.000000 3.885726 9.870285 3.108654 13.036244 3.157258 4.364897 -10.993354 -7.881433 5.674803 -3.287789 -15.212476 -0.868987 -71.864983 -20.449963 46.198292 -27.228539 2.747814 1.023726 30.420027 0.158554 -3.199173 -0.887894 16.806530 -0.364827 58.398445 7.026043 39.431610 -1.879180 6.047367 0.270799 8.877610 6.534776 -9.905663 3.778918 9.344358 -4.881752 50.392345 -2.591199 -6.774229 -9.209950 11.203974 2.065553 -20.555645 3.672341 3.741190 36.761318 1.323128 12.386544 -10.106778 -11.511824 -4.332241 
-36.392952 48.351494 -1.594585 -2.327803 -6.137548 7.582615 0.000000 0.000000 0.000000 3.970800 10.336992 3.351019 13.017477 3.348621 4.231068 -11.088866 -8.015058 5.551520 -3.336353 -15.087186 -0.835603 -72.104416 -19.873766 46.409836 -25.492981 1.878915 0.842412 29.927984 -0.031587 -3.525092 -0.470143 16.959377 -0.422964 57.827667 8.019479 38.334831 -0.975756 5.698633 0.204791 8.830492 6.730564 -10.006127 1.269805 9.701727 -4.794338 54.438671 -2.301135 -6.599982 -7.561303 11.181064 1.576404 -19.693047 3.924759 3.708639 36.392502 1.711542 11.788132 -10.646631 -11.133054 -4.341262 
-36.523697 48.402351 -1.159137 -2.436612 -6.302936 7.942900 0.000000 0.000000 0.000000 4.045270 10.716046 3.635641 13.008376 3.527463 4.076692 -11.171868 -8.093865 5.406292 -3.415361 -14.970740 -0.819837 -72.315079 -19.348963 46.556244 -23.717226 0.988206 0.651995 29.173607 -0.267989 -3.778608 -0.072119 17.092861 -0.490161 57.252975 8.909970 37.388611 0.122885 5.280965 0.128543 8.656688 7.025247 -10.338573 -1.219224 9.935316 -4.592306 58.209305 -1.831088 -6.614630 -6.248779 11.383900 1.196504 -18.742426 4.157810 3.807827 35.845600 2.092284 11.125444 -11.115366 -10.759330 -4.415574 
-36.644470 48.464897 -0.731304 -2.535294 -6.390275 8.299271 0.000000 0.000000 0.000000 4.118872 11.007351 3.981528 13.018450 3.674603 3.896861 -11.282124 -8.125154 5.230862 -3.484554 -14.870553 -0.860912 -72.505898 -18.832748 46.628479 -21.899837 0.043219 0.476103 28.283173 -0.536896 -3.936832 0.326450 17.226328 -0.539631 56.655552 9.710386 36.594154 1.356544 4.813688 0.081244 8.326375 7.399502 -10.953538 -3.639660 10.013954 -4.305817 61.684040 -1.237150 -6.749874 -5.352804 11.702242 1.040455 -17.752125 4.364500 4.005825 35.168697 2.420556 10.473961 -11.499920 -10.442647 -4.538235 
-36.752827 48.539501 -0.310305 -2.633559 -6.389785 8.642172 0.000000 0.000000 0.000000 4.191024 11.181716 4.380169 13.048016 3.802428 3.713832 -11.409241 -8.100301 5.037103 -3.553651 -14.773805 -0.843266 -72.641296 -18.417847 46.548569 -19.893528 -1.151145 0.311779 27.452404 -0.862097 -3.951351 0.715366 17.350014 -0.607420 56.051243 10.443761 35.963120 2.706325 4.257556 0.032372 7.839026 7.823876 -11.802211 -5.961955 9.925174 -3.964292 64.759140 -0.632193 -6.920498 -4.920906 12.056562 1.199172 -16.688181 4.512022 4.278598 34.419868 2.680191 9.910170 -11.798055 -10.248316 -4.680403 
-36.846737 48.626598 0.104910 -2.711658 -6.291832 8.939254 0.000000 0.000000 0.000000 4.261562 11.239167 4.827389 13.106392 3.882231 3.521708 -11.562570 -8.009759 4.824030 -3.612933 -14.696157 -0.833871 -72.744011 -18.032856 46.361755 -17.846844 -2.282895 0.172910 26.522799 -1.159882 -3.813713 1.115053 17.473448 -0.679760 55.487942 11.135273 35.467712 4.103613 3.641342 -0.006600 7.213611 8.249149 -12.795577 -8.166870 9.670671 -3.626543 67.441475 -0.113433 -7.048054 -4.957981 12.399094 1.681926 -15.602087 4.598214 4.599877 33.599632 2.898842 9.413823 -12.021955 -10.123469 -4.848291 
-36.924923 48.726509 0.515489 -2.779504 -6.115898 9.182430 0.000000 0.000000 0.000000 4.340473 11.189335 5.307736 13.183369 3.887077 3.322239 -11.723376 -7.873040 4.613217 -3.672533 -14.635612 -0.866984 -72.824577 -17.636856 46.081284 -15.736423 -3.347466 0.067363 25.522429 -1.380452 -3.535492 1.515201 17.587191 -0.743762 54.955704 11.797420 35.061886 5.499679 2.955223 -0.028472 6.469389 8.645616 -13.873912 -10.228953 9.273076 -3.313053 69.685661 0.276702 -7.141830 -5.403221 12.711625 2.499509 -14.469107 4.637104 4.951027 32.751812 3.020467 8.982863 -12.179544 -10.062858 -5.008424 
-36.987041 48.839203 0.922538 -2.817431 -5.852342 9.369038 0.000000 0.000000 0.000000 4.407790 11.032532 5.817013 13.279285 3.837492 3.130621 -11.891724 -7.690298 4.386053 -3.732401 -14.597587 -0.849998 -72.876488 -17.271790 45.651825 -13.482074 -4.478874 0.003422 24.559080 -1.530814 -3.151311 1.926012 17.690969 -0.811949 54.477257 12.436119 34.702515 6.865826 2.218845 -0.030180 5.645304 8.963919 -14.956834 -12.154882 8.747847 -3.067664 71.485229 0.460964 -7.231222 -6.204087 12.945271 3.522976 -13.314389 4.587130 5.310407 31.866289 3.089282 8.582256 -12.257022 -10.014567 -5.133753 
-37.033672 48.964100 1.327098 -2.825710 -5.540173 9.510974 0.000000 0.000000 0.000000 4.454166 10.807878 6.356070 13.403617 3.714406 2.941941 -12.048492 -7.471802 4.162438 -3.802540 -14.566077 -0.884731 -72.909760 -16.827183 45.180710 -11.273064 -5.348111 -0.020804 23.444336 -1.478617 -2.729440 2.336932 17.765379 -0.880447 54.065056 13.051897 34.339115 8.192782 1.433853 0.000643 4.790679 9.203577 -15.955175 -13.964705 8.134672 -2.926961 72.876541 0.393029 -7.194561 -7.216124 13.047379 4.607016 -12.156899 4.462294 5.663702 30.961945 3.108672 8.244142 -12.310429 -9.999208 -5.250592 
-37.066154 49.099937 1.730027 -2.814191 -5.169573 9.599323 0.000000 0.000000 0.000000 4.459816 10.515654 6.900073 13.527552 3.554878 2.753365 -12.155812 -7.246899 3.947558 -3.882889 -14.547294 -0.873743 -72.918152 -16.370768 44.630932 -8.943277 -6.228788 0.011594 22.346277 -1.288125 -2.337434 2.747756 17.810431 -0.948657 53.729187 13.634472 33.935364 9.472605 0.615660 0.032895 3.944925 9.335022 -16.806568 -15.635841 7.447459 -2.920307 73.855515 0.051386 -7.163902 -8.331811 13.125204 5.620023 -10.978389 4.262708 5.999318 30.030077 3.113771 7.871526 -12.306062 -9.941960 -5.319474 
-37.086483 49.244667 2.131952 -2.763524 -4.779617 9.643703 0.000000 0.000000 0.000000 4.425204 10.175292 7.474202 13.651143 3.358972 2.564063 -12.214643 -7.033691 3.729283 -3.983751 -14.547755 -0.868887 -72.908684 -15.840846 44.100521 -6.685388 -6.890313 0.065116 21.126913 -0.874324 -2.074982 3.127332 17.817413 -0.996803 53.462437 14.192859 33.485786 10.705125 -0.181641 0.096488 3.128224 9.407025 -17.478943 -17.241789 6.726820 -3.045821 74.469475 -0.525338 -7.118450 -9.440881 13.122275 6.427072 -9.780211 4.010890 6.286812 29.069460 3.089620 7.538293 -12.283401 -9.837193 -5.392820 
-37.096973 49.395546 2.533216 -2.683625 -4.379975 9.667391 0.000000 0.000000 0.000000 4.321322 9.826051 8.054108 13.765059 3.155325 2.381437 -12.195536 -6.833307 3.504704 -4.104824 -14.543240 -0.939558 -72.896561 -15.181133 43.639812 -4.539047 -7.326951 0.138502 19.806499 -0.226637 -2.031219 3.485680 17.785318 -1.043626 53.272560 14.711044 32.984241 11.921155 -0.991958 0.166861 2.370234 9.409798 -17.993280 -18.750126 6.003121 -3.299476 74.744751 -1.316218 -7.070819 -10.444074 13.102357 6.916201 -8.577127 3.706626 6.570221 28.050131 3.089675 7.129785 -12.249397 -9.658068 -5.396409 
-37.100025 49.549202 2.933865 -2.564815 -3.990152 9.670345 0.000000 0.000000 0.000000 4.168083 9.457795 8.635602 13.849885 2.953644 2.206327 -12.099337 -6.663706 3.301016 -4.226039 -14.554513 -0.920790 -72.829659 -14.520820 43.172009 -2.320308 -7.862189 0.247947 18.525171 0.511330 -2.184581 3.791827 17.714624 -1.085559 53.150379 15.175835 32.445644 13.139929 -1.771201 0.265089 1.641692 9.382611 -18.348089 -20.217966 5.281542 -3.660219 74.687393 -2.282927 -7.022992 -11.285667 13.055222 7.110666 -7.391726 3.369582 6.826927 26.992229 3.091084 6.680439 -12.195063 -9.410220 -5.296293 
-37.097965 49.701855 3.333790 -2.407175 -3.629615 9.663893 0.000000 0.000000 0.000000 3.956117 9.099725 9.192476 13.915342 2.745744 2.046286 -11.944480 -6.496365 3.102128 -4.356984 -14.544138 -0.934749 -72.751190 -13.800411 42.796669 -0.323333 -8.173245 0.354116 17.135525 1.434644 -2.595199 4.076593 17.615156 -1.115948 53.081593 15.599521 31.886526 14.361600 -2.499788 0.384354 0.893486 9.345151 -18.549416 -21.643347 4.588678 -4.133108 74.353004 -3.386023 -6.948405 -11.903421 12.998633 7.029768 -6.215527 3.014103 7.055642 25.842081 3.138871 6.185521 -12.126981 -9.085578 -5.167619 
-37.092953 49.849491 3.732812 -2.210695 -3.298330 9.658295 0.000000 0.000000 0.000000 3.695330 8.741836 9.703901 13.951504 2.514193 1.906999 -11.750265 -6.321080 2.934391 -4.467542 -14.525101 -0.930869 -72.606682 -13.046064 42.438057 1.558087 -8.485146 0.459824 15.766983 2.418756 -3.192120 4.340124 17.495319 -1.157643 53.058105 15.962808 31.355036 15.626771 -3.222616 0.507636 0.125660 9.316902 -18.654240 -23.016102 3.954885 -4.616823 73.745079 -4.518750 -6.891737 -12.302949 12.946769 6.702650 -5.073790 2.633107 7.283687 24.651861 3.197714 5.631090 -12.030360 -8.695515 -4.938219 
